<svg xmlns="http://www.w3.org/2000/svg" width="654" height="600" fill="none" viewBox="0 0 654 600"><path stroke="#000" d="m106 90.22-.239-.147L87.836 79.12 76 64.324v-7.281l11.423.952 13.973 2.994.008.002.009.001 16.969 2.994 12.793 3.937 7.366 11.786 3.947 12.336-1.984 14.889-.002.021-.001.023-.999 21.982-.985 12.315-8.017 8.018-4.18-4.18-.038-.026-9.295-6.36L116 117.5v-14.783l-.243-.146L106 96.717z"/><path stroke="#000" d="m156.812 92.994 5.868 4.89.016.013.017.012 4.88 3.416 4.945 11.867.017.038.021.035 4.924 7.878v9.458l-10.61 2.412-.397.09.007.406.498 29.393-2.332 5.598h-11.342l-.136.109-4.751 3.8-3.686-1.843-6.229-4.152-.267.15-7.984 4.492-9.78 4.888-6.226-2.874-7.453-5.961-.031-.024-.035-.021-11.273-6.372-.948-9.946 9.216-6.306 12.72-5.381 9.728 5.837 4.311 4.311 7.974-7.974.022-.167 1-7.5.003-.024.001-.023.999-26.981 1.934-14.023z"/><path stroke="#000" d="m144.257 169.937 3.8 2.375 1.955 8.796.019.086.047.075 3.486 5.478 3.952 7.903 1.395 9.764-13.771-1.899-11.903-5.455-6.433-3.959-4.822-4.34-.961-12.484 16.986-9.706zm33.243-49.088-.084-.126-4.973-7.458-4.877-11.706 5.31-7.725 11.452-9.957.026-.021.021-.025 7.351-8.331h17.84l.912 6.385-5.398 8.343-.133.206.081.231 3.5 10 2.995 9.485.015.048.024.045 2.454 4.417 1.488 11.404.011.079.033.07 3.971 8.439 1.424 8.074-11.114 5.798-6.884 1.476h-20.484l-.963-12.04-.008-.104-.049-.091-3.941-7.391z"/><path stroke="#000" d="m232.145 89.855 7.471 8.965.067.08.093.047 13.724 6.862v15.294l.04.094 2.973 6.937.991 7.432.006.032 2.422 12.111-10.639 4.836-.066.03-.055.048-11.149 9.693-9.649-9.649-7.402-9.376-1.479-8.873-.013-.074-.033-.068-3.958-7.916-.991-11.403-.009-.106-.051-.094-2.479-4.461-6.416-19.743 4.78-8.606 10.038-1.912z"/><path stroke="#000" d="m229.128 152.835.009.009 8.912 9.407L242 177.066v18.166l-8.616 5.744-12.419-1.911-1.467-17.607-.014-.167-.112-.126-4.39-4.877-1.484-16.333-.039-.432-.433-.022-9.074-.479-.911-8.649 7.088-1.89.054-.014.049-.026 10.156-5.32z"/><path stroke="#000" d="m242 176.433-.018-.066-3.917-14.196 10.709-9.249 11.028-5.274 4.729 8.041 1.984 7.932.024.098.061.081 7.477 9.971 2.294 4.128-6.21 5.734-.116.106-.033.155-2.454 11.285-5.81 3.389-.248.145V209h-5.333l-7.819-5.864-6.348-7.814z"/><path stroke="#000" d="m275.335 95.5 9.093 6.744-.49 13.738-.007.188.119.145 4.019 4.947 3.974 8.941.031.07.051.058 7.475 8.471 4.976 7.963.165.265.312-.033 9.202-.969 6.273 9.168 2.465 12.818-.955 7.157-7.689 3.845-10.916 1.489-.066.009-.061.025-9.161 3.857-5.263-6.219-.143-.168-.219-.009-12.262-.491-9.796-13.225-1.976-8.398-.017-.076-.04-.067-4.451-7.419-3.485-20.408-.011-.059-.022-.054-2.96-6.907V105.24l12.176-9.74z"/><path stroke="#000" d="m277 200.184-.286-.136-9.148-4.333 2.39-11.948 6.729-5.767h11.585l5.85 6.825.254.297.35-.175 8.926-4.464 10.917-1.488.076-.01.069-.032 7.323-3.418 7.478 2.337.987 25.648.003.073.024.069 5.952 17.36-3.417 14.155-8.316 4.892-.06.035-.049.052-8.957 9.454-9.731 6.024-1.45-24.663-.025-.426-.424-.042-14.641-1.465-1.921-8.646-.042-.188-.155-.111L277 212.741z"/><path stroke="#000" d="m354 328.435-.017-.064-2-7.5-2.961-13.322 2.938-6.852.027-.066.009-.07 2-16.5.021-.165-6.036-10.562-1.986-13.904-2.498-21.488-.009-.068-.026-.064-6.991-16.978-5.474-16.919-.979-25.473 12.042-1.444.416-.05.023-.419.981-17.678 8.485-3.3 6.298 3.391.111.06h4.22l.088-.034 8.547-3.325 2.736 6.381-2.924 8.772-3.976 6.958-.065.115v14.309l4 5v14.862l.006.038 2.991 19.448-.997 23.455-.997 9.971-.005.044.004.044.998 12.975v29.458l-1.497 13.473-.011.099.028.095 2.967 10.388-1.479 8.387-.028.156.068.144 3.885 8.255-3.859 6.27-.12.195.069.217 2.992 9.474 1.985 8.932v20.8l-4.924 7.879-.093.148.02.173.997 8.973v38.594l-10.038 2.867L349 451.06v-18.379l7.384-8.861.103-.124.012-.161 1.5-21 .001-.017v-25.553l-.005-.035-2.484-17.389 2.467-7.892.062-.2-.099-.184-3.941-7.391zm-77.488-128.121L277 212.52l.01.245.199.142 10.342 7.387 1.84 8.74-7.92.467-.14.008-.115.08-6.1 4.222-3.712-5.105-.106-.147-.177-.044-5.693-1.424-1.938-9.689-.002-.01-1.988-8.948v-9.658l5.518-3.219z"/><path stroke="#000" d="m234.5 225.293-3.483-3.483.978-11.738 1.953-9.278 7.961-5.619 6.705 8.142.04.049.05.037 7.632 5.597h5.261l3.915 18.105.065.304.302.076 5.806 1.452 3.3 5.186-.457 4.565-3.969 2.207-6.236-5.277-.154-.131-.202.014-7.5.5-.065.005-.06.019-7.512 2.504-.013.005-11.075 4.333-3.242-6.485zm-44-29.013-.162-.148-5.927-5.433-3.458-7.411-.007-.014-.008-.013-2.965-5.437-1.985-8.932-.04-.178-.144-.111-8.313-6.357-.977-29.347 10.758-2.338 4.733 7.098.495 12.361.02.48h20.533l.95 8.556.05.444h9.488l1.461 17.043.015.167.111.125 4.385 4.872.948 12.793h-10.564l-.094.04-10.5 4.5-.184.079-.079.184-2.87 6.697h-5.67z"/><path stroke="#000" d="m176.053 168.794 1.959 8.814.012.057.026.052 6.5 13.5.046.095.081.07 6.311 5.34-.465 9.295-12.543.483h-9.994l-.013.001-8.55.475-1.929-12.055-.013-.079-.037-.071-7.465-14.434-1.436-8.136 5.135-4.201h11.644l.133-.293 2.247-4.944zm44.046 25.706.913 4.108.074.334.338.052 12.472 1.918-1.884 8.48-.007.033-.003.033-1 12-.02.231 3.518 3.518v10.918l.059.11 3.776 7.08-4.339 2.604-5.744-3.351-.415-.242-.259.405-3.489 5.483-2.903 3.87-6.035 2.321-5.269-6.228-.014-.016-5.368-5.368v-6.259l1.496-11.47.034-.264-.201-.176-3.868-3.385-1.469-8.326-.027-.155-4.874-4.874 3.789-9 10.719-4.384z"/><path stroke="#000" d="m270.392 241.118-3.844 8.169-.156.332.269.248 6.339 5.851v6.621l-4.907 6.87-.023.032-4.031 8.063-.01.028-2.5 7-.029.081v19.946l-5.379-1.344-.079-.02-.082.007-18.211 1.476-14.766-21.656-1.486-14.374-.008-.076-.03-.071-6.262-14.449 5.915-1.365.188-.043.109-.157 6.737-9.624 5.602 3.269.264.154.257-.164 5.454-3.472 16.394-5.962 8.212-.966z"/><path stroke="#000" d="m273 255.804-.134-.144-6.27-6.753 3.776-8.026 4.331-1.924.297-.132v-5.053l6.661-4.282 7.828-.489 15.036 1.455 1.474 25.539-.98 25.005h-8.812l-5-5h-8.723l-8 .5h-10.175l3.617-7.233 4.97-6.462.104-.135z"/><path stroke="#000" d="m343.511 237.13 3.992 35.926.013.111.059.096 6.412 10.357-1.478 16.747-3.462 7.421-.075.161L354 328.062v16.056l3.955 7.91-2.802 7.472h-9.734l-3.922-22.06-.998-15.971-.009-.145-.085-.117-6.5-9-.123-.17-.208-.031-10-1.5-.574-.087v33.512L318.123 361h-13.214l-.085.032-8 3-.284.107-.036.3-1.946 16.061h-8.095l-.962-12.493.997-10.962.009-.098-.029-.094-3.967-12.891 2.484-16.89.015-.103-.028-.102-4-14.5-.003-.01-.002-.008-3.47-10.904.985-9.853 3.905-15.132 8.911-.938 4.83 5.092.147.157h8.195l.02-.481.989-25.23 9.768-5.861.065-.039.051-.056 8.432-9.425 9.409-4.456.217-.104.055-.233 3.157-13.324z"/><path stroke="#000" d="m246.5 356.328-.105-.135-3.4-4.371-.995-33.837-.002-.062-.018-.061-3.833-13.413 18.298-1.444 4.911 1.474.644.193V284.57l2.374-8.07h17.495l-3.356 14.387-.007.032-.004.033-1 10.5-.009.097.028.092 7.467 25.393-2.483 16.894-.016.108.032.106 3.972 13.408-.962 10.573-9.123 2.881-15.352.991-14.556-4.367z"/><path stroke="#000" d="m141.5 316.33-.104-.135-4.896-6.366v-4.648l2.384-2.861.116-.139v-12.372l4.39-2.196 7.245 7.729 7.49 8.489.224.253.317-.112 8.815-3.112.018-.334.996-18.94 3.779-12.755 5.358 4.018 4.952 7.428.232.349.384-.168 7.588-3.32 5.736 10.039 2.485 13.414.232 1.26.682-1.085 10.986-17.479 9.817-14.024 2.283 12.328.015.089.047.077 9.015 15.024.017.023 6.444 8.426 3.953 13.342v34.135l4 4v10.546l-12.282 9.447-4.754-11.886-.076-.19-8.188-3.582-.176-.077-.182.06-10.335 3.445-9.334-3.439-.221-.082-.204.119-6 3.5-.248.145v7.104l-8.725-2.755-7.41-7.904L168.207 351h-22.898l-6.339-12.679-2.405-9.133 4.747-3.797.188-.151z"/><path stroke="#000" d="m168.284 350.995 17.358 17.854.076.078.1.039 9 3.5.006.002 3.696 1.386.46 7.835-7.192 3.358-.187.088-.071.194-1.906 5.241-8.732 1.942-.392.087v10.737l-5.403 7.368-.044.061-.025.07-3.492 9.975-3.951 8.397-5.799 5.799-15.686.49-5.393-2.451-.042-.019-.044-.011-7.947-1.988-5.772-2.885-2.385-6.68 1.473-7.364.007-.036.002-.036 1-19 .008-.141-.069-.124-2.868-5.258 2.235-4.023 7.228-.481.2-.014.135-.147 5.5-6 .132-.144v-8.587l2.455-5.4.099-.217-.107-.214-1.85-3.7 3.279-3.747.07-.08.032-.102 1.888-6.139z"/><path stroke="#000" d="m229.114 364.381 4.922 12.305.254.636.528-.436 11.289-9.326 15.24 4.916.098.032.103-.01 15.5-1.5.044-.005.042-.012 8.414-2.337.94 12.225-5.345 8.262-4.789 2.873-12.874.496-.083.004-.077.029-6.477 2.49-5.475 1.495-.145.04-.099.113-3.486 3.984-4.017 4.017-.021.028-2.924 3.899-6.15 2.838-5.774-3.369-.124-.072-.145.004-15.5.5-.126.004-.109.064-6 3.5-.143.083-.065.152-2.917 6.803-3.691 1.385-5.277-.479-5.903-3.444-.022-.012-.023-.011-5.489-2.495-7.936-4.201 5.1-6.026.118-.139v-10.799l9.127-2.402.244-.063.093-.234 1.934-4.838 6.85-3.913.273-.157-.022-.313-.5-7-.02-.284-.255-.128-3.724-1.863v-6.9l6.546-3.741 9.281 3.42.165.061.166-.055 10.324-3.443zm-96.838 66.566.053.027.057.012 8.433 1.985 5.442 2.967.123.069.141-.008 9.569-.478 1.393 6.965-.878 3.514h-5.705l.104.587 1.462 8.285-2.87 3.828-.07.093-.021.115-1.427 7.608-12.102.484-.021.001-.021.003-8 1-3.618.451-1.856-4.641-.058-.144-3.129-2.086-.232-.155-.255.117-5.888 2.717-1.877-13.606 3.351-3.828.124-.141v-6.426l6.284-4.351.045-.03.036-.04 6.744-7.228z"/><path stroke="#000" d="m122.117 463.841 2.445 4.402.167.299.338-.047 10.969-1.496 12.235-.489 4.229 5.168v6.554l-2.777 1.852-.209.14-.013.251-.494 9.879-1.942 3.398-.065.115v7.105l-1.493 15.42-2.445 6.844-4.215 4.685-2.642-.88-3.457-1.976-.26-.147-.253.158-3.808 2.38-4.662-1.398-4.869-4.869-2.948-4.913-2.907-6.784 1.923-4.806.034-.084.002-.091.5-22.5.006-.251-.199-.155-4.273-3.323 1.923-13.943 5.988-2.764zm171.393-78.939-.01.048v18.297l.196.15 8.304 6.35v18.42l.1.133 4.319 5.76-3.871 8.227-.048.102v17.551l-2.443 10.259-4.714 3.301h-11.302l-9.364-1.479-3.9-2.437-4.526-3.018-6.324-3.162-.252.216-3.422 2.933-5.913 1.819-.86-3.01-.016-.059-.032-.055-3.5-6-.005-.01-.006-.009-4.5-7-.064-.097-.1-.061-4.975-2.984-5.982-4.487h-.001l-4.492-3.495-.33-.256-.312.279-5 4.5-.038.035-4.031 5.543-.043.059-.025.069-2.968 8.409-3.388 3.872-5.193 3.305-6.19-3.332-5.951-5.456-.064-.059-.08-.034-9.5-4-.056-.023-.06-.01-9.375-1.481-6.398-4.921-.074-.056-.087-.027-9.565-2.87.411-2.053.017-.081-.011-.083-.925-6.934h5.136l6.219-6.219.038-.095 3.004-7.51 4.301-11.47 8.999 4.736.042.023.046.014 4.932 1.479 5.443 3.464.101.063.118.012 5 .5.095.01.093-.027 3.5-1 .235-.067.091-.227 2.932-7.332 6.237-3.358 15.728-.492 5.37 3.418.231.146.248-.114 6.5-3 .111-.052.075-.097 4.983-6.479 4.402-4.891 12.315-3.941 13.441-.995.109-.009.097-.052 4.5-2.5.109-.062.068-.105 5.362-8.288 7.601-.447z"/><path stroke="#000" d="m302 409.241-.212-.149-8.288-5.851v-18.703l2.952-20.179 8.642-3.359h13.283l5.103-17.862.02-.068v-32.501l10.713 1.398 6.297 9.202.991 15.363.002.028.005.026 4 23 .079.458.463-.047 9.52-.952 2.43 17.488v26.446l-1.488 20.832-7.405 9.379-.107.136V451h-19.18l-2.866-6.21-.094-.202-.213-.066-6.499-2h.001l-8-2.5-.045-.013-.045-.005-7.843-.923 2.246-5.389.115-.277-.19-.231-4.387-5.363zM405.373 370l6.356 3.422 4.299 3.344.969 8.238-.957 10.528-13.077.969-.227.018-.136.181-3.123 4.164.028.203 1.475 10.826-2.909 4.85-.071.118v20.248l.046.101 2.909 6.305-1.867 4.668-3.755 2.817h-15.215l-5.623-2.812-.495-36.695v-.022l-.003-.024-.983-9.336 4.917-8.357.069-.118v-20.17l6.535-.467.148-.011 3.984-2.988z"/><path stroke="#000" d="m426.147 356.464 1.889 4.722.011.027.015.026 2.997 5.495v.001l4 7.5.141.265h10.811l22.5-.5h.005l47.485-1.5 33.984 1h20.561l.045-.009 13.5-2.5.008-.001.007-.002 11.327-2.463 3.494 1.747-.915 4.12-.002.01-.955 4.771-5.294 2.889-.261.141v34.86l.016.062 3.473 13.397L591.576 451h-35.06l-48.5-1.5h-.032l-47.5 1.5-59.192.994-2.234-4.019 1.899-4.272.092-.207-.095-.206-2.954-6.401v-19.751l2.929-4.881.095-.159-.032-.184-1.959-11.262 3.707-4.17 12.798-.984.398-.03.058-.394 1.5-10 .011-.068-.009-.068-1-8-.025-.206-.164-.127-4.5-3.5-.022-.016-.023-.015-5.883-3.62 5.892-4.532 6.466-3.482.1-.054.067-.092 3.828-5.266z"/></svg>
